#!OML:ASF I:\Actors\actors\Patient Classification 2\Patient 1\Session 1\actor1.ASF
:FULLY-SPECIFIED
:DEGREES
194
root -0.818357 18.198 5.17093 -0.374332 0.866048 -4.63579
lowerback 15.2588 3.3709 4.20755
upperback 4.71377 5.11485 1.20914
thorax -3.26628 2.52984 -1.9906
lowerneck -0.409349 -14.0297 -8.54338
upperneck 31.0518 -24.1252 16.0581
head 13.9099 -10.2766 4.47069
rclavicle -2.43511e-015 -9.54166e-015
rhumerus -28.7474 68.1375 -71.1284
rradius 109.732
rwrist -86.1305
rhand 26.7001 -30.6505
rfingers 7.12502
rthumb 50.7173 -51.4883
lclavicle -2.43511e-015 -9.54166e-015
lhumerus -26.7638 -67.268 100.135
lradius 105.39
lwrist 11.1373
lhand -11.3164 -35.5608
lfingers 7.12502
lthumb 14.7156 -6.1031
rfemur 11.5047 -3.45651 19.9581
rtibia -7.57436
rfoot -11.9822 -14.5544
rtoes 3.5315
lfemur 16.692 -4.34263 -12.7262
ltibia -22.4645
lfoot 4.20048 14.5353
ltoes -12.6534
195
root -0.808315 18.1985 5.16083 -0.370391 0.804609 -4.65123
lowerback 14.9704 3.36133 3.89783
upperback 4.91898 5.04258 1.3726
thorax -2.94294 2.50386 -1.60749
lowerneck -0.495051 -13.9331 -8.65116
upperneck 30.8801 -23.973 16.175
head 13.857 -10.215 4.54862
rclavicle -3.85145e-014 2.62396e-014
rhumerus -28.4584 68.992 -70.8403
rradius 109.671
rwrist -84.9178
rhand 26.8464 -27.5219
rfingers 7.12502
rthumb 50.8507 -48.2863
lclavicle -3.85145e-014 2.62396e-014
lhumerus -26.0826 -66.9162 99.5983
lradius 105.395
lwrist 11.1617
lhand -11.4324 -35.4452
lfingers 7.12502
lthumb 14.6039 -5.97938
rfemur 11.3872 -3.40962 19.9484
rtibia -7.43792
rfoot -12.0315 -14.5025
rtoes 3.42564
lfemur 16.6858 -4.29727 -12.7371
ltibia -22.4924
lfoot 4.18548 14.5593
ltoes -12.1591
196
root -0.799415 18.1992 5.15022 -0.370984 0.733282 -4.66829
lowerback 15.3278 3.41093 4.08876
upperback 4.74353 5.15258 1.22952
thorax -3.28231 2.54796 -1.91343
lowerneck -0.156235 -13.9449 -8.67286
upperneck 30.6835 -24.0952 16.6053
head 13.8042 -10.2678 4.72321
rclavicle 1.97791e-014 9.74045e-015
rhumerus -29.394 68.7144 -71.7698
rradius 109.655
rwrist -84.956
rhand 27.667 -27.9854
rfingers 7.12502
rthumb 51.5978 -48.3269
lclavicle 1.97791e-014 9.74045e-015
lhumerus -26.7233 -67.2026 100.083
lradius 105.438
lwrist 11.1997
lhand -11.5385 -35.3628
lfingers 7.12502
lthumb 14.5017 -5.88956
rfemur 11.282 -3.35404 19.9459
rtibia -7.33282
rfoot -12.0188 -14.4958
rtoes 3.1587
lfemur 16.6836 -4.26101 -12.7396
ltibia -22.5182
lfoot 4.13892 14.6095
ltoes -11.7185
197
root -0.792502 18.1998 5.13953 -0.359359 0.606253 -4.69749
lowerback 15.443 3.4378 4.09834
upperback 4.71505 5.19374 1.19107
thorax -3.367 2.56552 -1.9753
lowerneck -0.0560923 -13.9461 -8.77312
upperneck 30.6169 -24.16 16.8466
head 13.8264 -10.2977 4.82816
rclavicle -8.31914e-014 -4.47266e-015
rhumerus -29.5846 68.6215 -71.8476
rradius 109.715
rwrist -84.8874
rhand 29.1979 -28.947
rfingers 7.12502
rthumb 52.9844 -48.4493
lclavicle -8.31914e-014 -4.47266e-015
lhumerus -26.7697 -67.333 100.148
lradius 105.403
lwrist 11.1922
lhand -11.6805 -35.2979
lfingers 7.12502
lthumb 14.3649 -5.81494
rfemur 11.1773 -3.24459 19.9655
rtibia -7.26726
rfoot -11.9448 -14.5053
rtoes 2.89496
lfemur 16.6719 -4.15987 -12.7218
ltibia -22.5312
lfoot 4.11191 14.6413
ltoes -11.5757
198
root -0.788375 18.2005 5.13036 -0.352639 0.433703 -4.70117
lowerback 15.4512 3.4397 3.97485
upperback 4.73546 5.17624 1.17743
thorax -3.36093 2.5571 -1.91786
lowerneck -0.110598 -13.9396 -8.81001
upperneck 30.7439 -24.1701 16.8132
head 13.8981 -10.3002 4.81769
rclavicle -6.36111e-015 -1.86858e-014
rhumerus -29.645 68.6629 -71.7712
rradius 109.813
rwrist -84.7893
rhand 30.1361 -29.2853
rfingers 7.12502
rthumb 53.8293 -48.2381
lclavicle -6.36111e-015 -1.86858e-014
lhumerus -26.6697 -67.352 100.111
lradius 105.323
lwrist 11.1614
lhand -11.6037 -35.4301
lfingers 7.12502
lthumb 14.4388 -5.95236
rfemur 11.118 -3.091 19.9691
rtibia -7.26583
rfoot -11.8687 -14.5273
rtoes 2.61959
lfemur 16.6688 -4.05459 -12.7301
ltibia -22.5155
lfoot 4.10936 14.6864
ltoes -11.4797
199
root -0.786716 18.2016 5.12224 -0.354788 0.262018 -4.68265
lowerback 15.4604 3.4179 3.8153
upperback 4.73961 5.12167 1.13845
thorax -3.37542 2.52974 -1.86142
lowerneck -0.126517 -13.9212 -8.79068
upperneck 30.8843 -24.1498 16.7166
head 13.9415 -10.2921 4.78312
rclavicle -5.10628e-014 9.74045e-015
rhumerus -29.0993 68.2971 -71.155
rradius 109.901
rwrist -85.7627
rhand 30.1335 -31.3817
rfingers 7.12502
rthumb 53.827 -50.336
lclavicle -5.10628e-014 9.74045e-015
lhumerus -26.7091 -67.362 100.168
lradius 105.264
lwrist 11.1252
lhand -11.3543 -35.6231
lfingers 7.12502
lthumb 14.6792 -6.16278
rfemur 11.1114 -2.93936 19.9584
rtibia -7.33144
rfoot -11.7937 -14.5698
rtoes 2.34251
lfemur 16.6661 -3.99214 -12.757
ltibia -22.468
lfoot 4.06245 14.7765
ltoes -11.2701
